:FULLY-SPECIFIED
:FORCE-ALL-JOINTS-BE-3DOF
:DEGREES
1
root 6.24314 16.836 -28.1378 9.0217 -2.52979 -3.05774
lfemur -20.3712 2.30257 -19.9954
ltibia 35.927 0 0
lfoot -38.654 3.93715 0
ltoes 38.9541 0 0
rfemur -19.4747 0.22019 19.5256
rtibia 36.0342 0 0
rfoot -30.3779 -10.4967 0
rtoes 21.4483 0 0
lowerback -2.05144 3.66971 -5.03766
upperback -2.66728 5.00355 3.49279
thorax -2.36397 2.67023 6.42441
lowerneck -9.84699 -2.36864 1.94815
upperneck -1.37933 -3.32542 -1.65382
head 1.16433 -1.69823 -0.975663
lclavicle -1.65488e-14 -3.69739e-14 0
lhumerus -41.7253 -10.8128 99.8312
lradius 34.5094 0 0
lwrist 2.17521 0 0
lhand -10.5949 9.65639 0
lfingers 7.12502 0 0
lthumb 15.4107 39.062 0
rclavicle -1.65488e-14 -3.69739e-14 0
rhumerus -43.273 -4.86223 -84.2703
rradius 40.4763 0 0
rwrist 9.89469 0 0
rhand -23.7965 -22.476 0
rfingers 7.12502 0 0
rthumb 2.67393 -52.439 0
2
root 6.18354 16.8541 -28.1906 9.82992 -3.21882 -3.21628
lfemur -20.7696 1.87106 -20.1345
ltibia 35.6804 0 0
lfoot -39.3983 4.72883 0
ltoes 39.1741 0 0
rfemur -16.2376 1.23041 17.8883
rtibia 33.48 0 0
rfoot -32.3049 -11.877 0
rtoes 23.824 0 0
lowerback -3.07855 3.94781 -4.84986
upperback -2.96152 5.44244 3.5611
thorax -2.14423 2.88618 6.36705
lowerneck -9.7424 -2.40293 2.06774
upperneck -1.45437 -3.37931 -1.7676
head 1.11885 -1.72934 -1.03396
lclavicle -4.81455e-14 -4.10674e-14 0
lhumerus -41.8514 -10.2326 99.973
lradius 33.8953 0 0
lwrist 1.69119 0 0
lhand -11.7156 7.59881 0
lfingers 7.12502 0 0
lthumb 14.3358 37.1384 0
rclavicle -4.81455e-14 -4.10674e-14 0
rhumerus -43.4112 -3.87006 -85.49
rradius 39.1726 0 0
rwrist 11.7333 0 0
rhand -23.6573 -22.2815 0
rfingers 7.12502 0 0
rthumb 2.80838 -52.2452 0
3
root 6.12284 16.8741 -28.2379 10.6662 -3.97337 -3.3244
lfemur -21.124 1.43905 -20.3356
ltibia 35.3563 0 0
lfoot -40.1335 5.56901 0
ltoes 39.3747 0 0
rfemur -12.9488 2.26116 16.1904
rtibia 30.8036 0 0
rfoot -34.2509 -13.2543 0
rtoes 26.2753 0 0
lowerback -4.2082 4.22739 -4.64918
upperback -3.25041 5.88598 3.58269
thorax -1.85641 3.10116 6.26098
lowerneck -9.63557 -2.42775 2.19493
upperneck -1.53356 -3.42192 -1.85437
head 1.0721 -1.75427 -1.08451
lclavicle -9.00265e-14 -4.58677e-14 0
lhumerus -42.0082 -9.61641 100.041
lradius 33.3051 0 0
lwrist 1.24376 0 0
lhand -12.9518 4.82364 0
lfingers 7.12502 0 0
lthumb 13.1497 34.5054 0
rclavicle -9.00265e-14 -4.58677e-14 0
rhumerus -43.6199 -2.83072 -86.7923
rradius 37.961 0 0
rwrist 13.5676 0 0
rhand -23.5395 -22.0767 0
rfingers 7.12502 0 0
rthumb 2.92216 -52.0415 0
4
root 6.23329 16.8525 -28.0886 9.27418 -3.11946 -2.60389
lfemur -19.9756 2.29805 -20.5522
ltibia 35.2289 0 0
lfoot -38.5729 4.37367 0
ltoes 38.7791 0 0
rfemur -19.0092 0.404986 18.9796
rtibia 34.9338 0 0
rfoot -30.5489 -10.4701 0
rtoes 22.129 0 0
lowerback -2.97438 3.68294 -4.9218
upperback -2.61913 5.04544 3.07234
thorax -1.75124 2.66143 5.98606
lowerneck -9.82686 -2.28344 2.0165
upperneck -1.41675 -3.22392 -1.41065
head 1.15294 -1.64258 -0.905956
lclavicle -1.09108e-13 -4.33351e-14 0
lhumerus -42.0008 -10.4886 99.1718
lradius 34.7247 0 0
lwrist 2.50452 0 0
lhand -11.6336 3.19806 0
lfingers 7.12502 0 0
lthumb 14.41 32.6778 0
rclavicle -1.09108e-13 -4.33351e-14 0
rhumerus -43.9079 -4.43773 -85.0134
rradius 41.3047 0 0
rwrist 9.85575 0 0
rhand -23.9891 -22.3842 0
rfingers 7.12502 0 0
rthumb 2.48792 -52.3495 0
5
root 6.23909 16.8512 -28.0815 9.19956 -3.06869 -2.57203
lfemur -19.921 2.34233 -20.5569
ltibia 35.2304 0 0
lfoot -38.4935 4.30709 0
ltoes 38.7505 0 0
rfemur -19.3267 0.307265 19.1296
rtibia 35.1591 0 0
rfoot -30.3565 -10.3269 0
rtoes 21.9071 0 0
lowerback -2.90015 3.65476 -4.93719
upperback -2.58718 5.00168 3.05093
thorax -1.75292 2.63889 5.97698
lowerneck -9.83695 -2.27699 2.00652
upperneck -1.4103 -3.21489 -1.39062
head 1.15724 -1.63747 -0.897571
lclavicle -1.0902e-13 -4.313e-14 0
lhumerus -41.9972 -10.5372 99.1347
lradius 34.7953 0 0
lwrist 2.56565 0 0
lhand -11.5537 3.18914 0
lfingers 7.12502 0 0
lthumb 14.4865 32.6576 0
rclavicle -1.0902e-13 -4.313e-14 0
rhumerus -43.9154 -4.5254 -84.9132
rradius 41.4673 0 0
rwrist 9.665 0 0
rhand -24.0099 -22.401 0
rfingers 7.12502 0 0
rthumb 2.46787 -52.3663 0
6
root 6.24515 16.8498 -28.0741 9.12163 -3.01563 -2.53891
lfemur -19.8641 2.38849 -20.5617
ltibia 35.2321 0 0
lfoot -38.4106 4.23757 0
ltoes 38.7206 0 0
rfemur -19.6579 0.205286 19.2863
rtibia 35.3943 0 0
rfoot -30.1563 -10.1773 0
rtoes 21.6743 0 0
lowerback -2.82246 3.62538 -4.95328
upperback -2.55385 4.95605 3.02871
thorax -1.75483 2.6154 5.96763
lowerneck -9.84748 -2.27028 1.99611
upperneck -1.40356 -3.20549 -1.36982
head 1.16172 -1.63215 -0.888849
lclavicle -1.08906e-13 -4.29126e-14 0
lhumerus -41.9935 -10.588 99.0961
lradius 34.869 0 0
lwrist 2.62935 0 0
lhand -11.4702 3.18154 0
lfingers 7.12502 0 0
lthumb 14.5664 32.6383 0
rclavicle -1.08906e-13 -4.29126e-14 0
rhumerus -43.9229 -4.61696 -84.8084
rradius 41.6366 0 0
rwrist 9.46592 0 0
rhand -24.0311 -22.4183 0
rfingers 7.12502 0 0
rthumb 2.44732 -52.3836 0
7
root 6.25146 16.8484 -28.0664 9.04043 -2.96032 -2.50453
lfemur -19.805 2.43653 -20.5666
ltibia 35.2341 0 0
lfoot -38.3244 4.16516 0
ltoes 38.6896 0 0
rfemur -20.0028 0.0991129 19.4496
rtibia 35.6391 0 0
rfoot -29.9484 -10.0214 0
rtoes 21.431 0 0
lowerback -2.74136 3.59481 -4.97006
upperback -2.51916 4.90856 3.00569
thorax -1.75698 2.59096 5.95802
lowerneck -9.85845 -2.26331 1.98525
upperneck -1.39654 -3.19573 -1.34823
head 1.16639 -1.62662 -0.879794
lclavicle -1.08766e-13 -4.26829e-14 0
lhumerus -41.9896 -10.6409 99.0561
lradius 34.9456 0 0
lwrist 2.69559 0 0
lhand -11.383 3.17525 0
lfingers 7.12502 0 0
lthumb 14.6499 32.6198 0
rclavicle -1.08766e-13 -4.26829e-14 0
rhumerus -43.9306 -4.71235 -84.6991
rradius 41.8125 0 0
rwrist 9.25864 0 0
rhand -24.0529 -22.4361 0
rfingers 7.12502 0 0
rthumb 2.42627 -52.4014 0
8
root 6.25802 16.8469 -28.0584 8.95602 -2.90278 -2.46892
lfemur -19.7436 2.48639 -20.5715
ltibia 35.2363 0 0
lfoot -38.235 4.0899 0
ltoes 38.6574 0 0
rfemur -20.3611 -0.0111899 19.6194
rtibia 35.8934 0 0
rfoot -29.7328 -9.8592 0
rtoes 21.1772 0 0
lowerback -2.6569 3.56309 -4.98753
upperback -2.48315 4.85926 2.98189
thorax -1.75935 2.56558 5.94814
lowerneck -9.86986 -2.25608 1.97397
upperneck -1.38923 -3.1856 -1.32589
head 1.17125 -1.62089 -0.870412
lclavicle -1.08601e-13 -4.24411e-14 0
lhumerus -41.9854 -10.6958 99.0147
lradius 35.0252 0 0
lwrist 2.76434 0 0
lhand -11.2923 3.17026 0
lfingers 7.12502 0 0
lthumb 14.7367 32.602 0
rclavicle -1.08601e-13 -4.24411e-14 0
rhumerus -43.9383 -4.81152 -84.5854
rradius 41.995 0 0
rwrist 9.04329 0 0
rhand -24.0752 -22.4544 0
rfingers 7.12502 0 0
rthumb 2.40473 -52.4198 0
9
root 6.26482 16.8454 -28.0501 8.86845 -2.84307 -2.4321
lfemur -19.6801 2.53806 -20.5765
ltibia 35.2387 0 0
lfoot -38.1422 4.01183 0
ltoes 38.624 0 0
rfemur -20.7326 -0.125558 19.7955
rtibia 36.1571 0 0
rfoot -29.5097 -9.69092 0
rtoes 20.9131 0 0
lowerback -2.56913 3.53021 -5.00568
upperback -2.44582 4.80816 2.95731
thorax -1.76195 2.53929 5.93801
lowerneck -9.88169 -2.2486 1.96227
upperneck -1.38165 -3.17511 -1.3028
head 1.17628 -1.61496 -0.860707
lclavicle -1.08411e-13 -4.21876e-14 0
lhumerus -41.9811 -10.7528 98.972
lradius 35.1077 0 0
lwrist 2.83554 0 0
lhand -11.1981 3.16653 0
lfingers 7.12502 0 0
lthumb 14.8269 32.5851 0
rclavicle -1.08411e-13 -4.21876e-14 0
rhumerus -43.9462 -4.91441 -84.4673
rradius 42.1839 0 0
rwrist 8.81999 0 0
rhand -24.0981 -22.4732 0
rfingers 7.12502 0 0
rthumb 2.38269 -52.4386 0
10
root 6.27186 16.8438 -28.0416 8.77777 -2.78119 -2.39409
lfemur -19.6143 2.59151 -20.5816
ltibia 35.2413 0 0
lfoot -38.0462 3.931 0
ltoes 38.5896 0 0
rfemur -21.117 -0.243927 19.978
rtibia 36.4301 0 0
rfoot -29.2792 -9.51661 0
rtoes 20.6389 0 0
lowerback -2.47812 3.4962 -5.02449
upperback -2.4072 4.7553 2.93198
thorax -1.76477 2.5121 5.92762
lowerneck -9.89395 -2.24087 1.95015
upperneck -1.3738 -3.16428 -1.27898
head 1.1815 -1.60883 -0.850686
lclavicle -1.08196e-13 -4.19224e-14 0
lhumerus -41.9766 -10.8117 98.9279
lradius 35.193 0 0
lwrist 2.90917 0 0
lhand -11.1004 3.16406 0
lfingers 7.12502 0 0
lthumb 14.9204 32.569 0
rclavicle -1.08196e-13 -4.19224e-14 0
rhumerus -43.9541 -5.02095 -84.3449
rradius 42.3791 0 0
rwrist 8.58887 0 0
rhand -24.1214 -22.4925 0
rfingers 7.12502 0 0
rthumb 2.36017 -52.458 0
11
root 6.27914 16.8421 -28.0328 8.68403 -2.7172 -2.35491
lfemur -19.5465 2.64671 -20.5868
ltibia 35.2441 0 0
lfoot -37.9471 3.84746 0
ltoes 38.554 0 0
rfemur -21.5142 -0.366232 20.1666
rtibia 36.7121 0 0
rfoot -29.0415 -9.33638 0
rtoes 20.3547 0 0
lowerback -2.3839 3.46109 -5.04394
upperback -2.36731 4.7007 2.9059
thorax -1.76781 2.48403 5.91699
lowerneck -9.90661 -2.2329 1.93763
upperneck -1.36568 -3.1531 -1.25443
head 1.18688 -1.6025 -0.840352
lclavicle -1.07957e-13 -4.16459e-14 0
lhumerus -41.972 -10.8727 98.8825
lradius 35.2812 0 0
lwrist 2.98517 0 0
lhand -10.9994 3.16284 0
lfingers 7.12502 0 0
lthumb 15.0171 32.5537 0
rclavicle -1.07957e-13 -4.16459e-14 0
rhumerus -43.9622 -5.13109 -84.2183
rradius 42.5805 0 0
rwrist 8.35005 0 0
rhand -24.1452 -22.5123 0
rfingers 7.12502 0 0
rthumb 2.33718 -52.4778 0
12
root 6.28665 16.8404 -28.0237 8.58727 -2.65113 -2.31457
lfemur -19.4766 2.70363 -20.592
ltibia 35.2472 0 0
lfoot -37.8449 3.76124 0
ltoes 38.5173 0 0
rfemur -21.924 -0.49241 20.3614
rtibia 37.0031 0 0
rfoot -28.7966 -9.15032 0
rtoes 20.0608 0 0
lowerback -2.28654 3.42488 -5.06404
upperback -2.32617 4.64439 2.87908
thorax -1.77106 2.45507 5.90611
lowerneck -9.91968 -2.22469 1.9247
upperneck -1.35729 -3.14158 -1.22916
head 1.19244 -1.59599 -0.829711
lclavicle -1.07694e-13 -4.13581e-14 0
lhumerus -41.9671 -10.9356 98.8358
lradius 35.3721 0 0
lwrist 3.06352 0 0
lhand -10.895 3.16283 0
lfingers 7.12502 0 0
lthumb 15.117 32.5392 0
rclavicle -1.07694e-13 -4.13581e-14 0
rhumerus -43.9703 -5.24477 -84.0876
rradius 42.7881 0 0
rwrist 8.10367 0 0
rhand -24.1695 -22.5326 0
rfingers 7.12502 0 0
rthumb 2.31371 -52.4982 0
13
root 6.29439 16.8387 -28.0143 8.48756 -2.583 -2.2731
lfemur -19.4046 2.76224 -20.5973
ltibia 35.2504 0 0
lfoot -37.7397 3.67239 0
ltoes 38.4796 0 0
rfemur -22.3461 -0.622395 20.5621
rtibia 37.3028 0 0
rfoot -28.5446 -8.95854 0
rtoes 19.7573 0 0
lowerback -2.18608 3.3876 -5.08477
upperback -2.28381 4.58641 2.85154
thorax -1.77452 2.42527 5.89499
lowerneck -9.93315 -2.21624 1.91137
upperneck -1.34865 -3.12973 -1.2032
head 1.19817 -1.58928 -0.818768
lclavicle -1.07408e-13 -4.10592e-14 0
lhumerus -41.9621 -11.0003 98.7878
lradius 35.4657 0 0
lwrist 3.14418 0 0
lhand -10.7873 3.16403 0
lfingers 7.12502 0 0
lthumb 15.2201 32.5254 0
rclavicle -1.07408e-13 -4.10592e-14 0
rhumerus -43.9785 -5.36194 -83.9527
rradius 43.0017 0 0
rwrist 7.84985 0 0
rhand -24.1943 -22.5534 0
rfingers 7.12502 0 0
rthumb 2.28977 -52.519 0
